<?xml version="1.0" encoding="utf-8"?>
<!-- Generator: Adobe Illustrator 22.1.0, SVG Export Plug-In . SVG Version: 6.00 Build 0)  -->
<svg version="1.1" id="레이어_1" xmlns="http://www.w3.org/2000/svg" xmlns:xlink="http://www.w3.org/1999/xlink" x="0px"
	 y="0px" viewBox="0 0 212 34" style="enable-background:new 0 0 212 34;" xml:space="preserve">
<style type="text/css">
	.st0{fill:#020511;}
	.st1{fill:#F8F9F9;}
	.st2{fill:#F7F8F8;}
</style>
<g>
	<polygon class="st0" points="212,0 65.4,0 65.4,34 206,34 212,28 	"/>
</g>
<g>
	<rect x="0.5" y="0.5" class="st1" width="64.4" height="33"/>
	<path class="st0" d="M64.4,1v32H1V1H64.4 M65.4,0H0v34h65.4V0L65.4,0z"/>
</g>
<g>
	<path class="st0" d="M6.4,29.1V7l7.6,12.7v9.4H6.4z M6.4,4.8H15l6.5,10.8l5.1-8.8V19l-5.8,10L6.4,4.8z M27.8,29.1V4.8h8.1v24.3
		H27.8z"/>
	<path class="st0" d="M37.8,4.9h8.1l2.7,7.4L45,21.4L37.8,4.9z M50.8,29.2H43l9.8-24.3h7.8L50.8,29.2z"/>
	<path class="st2" d="M71.2,29.1V4.8h8.1v24.3H71.2z M83.4,21.8h-2.8v-4.7h6.1V9.6h-6.1V4.8h9.2l4.9,4.9v7.3L91,20.7 M91,20.7
		l0.3,0.6l4.2,7.8h-8.6l-3.2-6.7l-0.3-0.5"/>
	<path class="st2" d="M106.1,29.1h-3.2L98,24.2v-9.7l4.9-4.9h3.2V29.1z M107.4,21.3v-3.4h4.3v-3.4h-4.3V9.6h6.9l4.9,4.9v6.8H107.4z
		 M107.4,29.1v-4.5h10.9v2.1l-2.4,2.4H107.4z"/>
	<path class="st2" d="M131,25.5h3.6v3.6h-8.3l-3.4-4v-1.6h8.1V25.5z M127.3,9.6h3.2v6.9h9.2l4.2,4.2v3.8l-4.5,4.5h-3.6v-7.3h-8.7
		l-4.2-4V14L127.3,9.6z M135.8,13.2h-4.1V9.6h8.6l2.9,2.9v2.2h-7.4V13.2z"/>
	<path class="st2" d="M155,29.1h-3.2l-4.9-4.9v-9.7l4.9-4.9h3.2V29.1z M156.3,21.3v-3.4h4.3v-3.4h-4.3V9.6h6.9l4.9,4.9v6.8H156.3z
		 M156.3,29.1v-4.5h10.9v2.1l-2.4,2.4H156.3z"/>
	<path class="st2" d="M183.2,29.1H176l-4.5-4.5V4.9h8.1v19.3h3.6V29.1z"/>
	<path class="st2" d="M197,29.1h-7.2l-4.5-4.5V4.9h8.1v19.3h3.6V29.1z"/>
</g>
<circle class="st2" cx="204" cy="26.6" r="2.4"/>
</svg>
